<?xml version="1.0" encoding="UTF-8"?> <svg xmlns="http://www.w3.org/2000/svg" width="1934" height="300" viewBox="0 0 1934 300" fill="none"> <path d="M190.823 299.051L132.911 215.506H129.114H69.3038V299.051H0L0 0L129.114 0C155.696 0 178.481 4.74678 197.468 13.2911C217.405 21.8354 232.595 34.1772 243.038 51.2658C253.481 67.405 259.177 86.3924 259.177 109.177C259.177 131.013 253.481 150.949 243.038 167.089C232.595 183.228 217.405 195.57 197.468 204.114L264.873 300H190.823V299.051ZM189.873 108.228C189.873 91.1392 184.177 78.7974 173.734 70.2531C163.291 60.7594 147.152 56.962 126.266 56.962H69.3038V161.392H125.316C146.202 161.392 162.342 156.646 172.785 148.101C184.177 137.658 189.873 125.316 189.873 108.228ZM511.709 234.494H373.101L346.519 299.051H275.316L408.228 0L476.582 0L610.443 299.051H537.342L511.709 234.494ZM489.873 182.278L442.405 67.4051L394.937 182.278H489.873ZM916.139 0V299.051H846.835V176.582H711.076V299.051H641.772V0L711.076 0V117.721H846.835V0L916.139 0ZM1258.86 299.051V119.62L1170.57 267.721H1139.24L1051.9 123.418V299.051H987.342V0L1044.3 0L1156.33 186.076L1266.46 0L1323.42 0L1324.37 299.051H1258.86ZM1591.14 234.494H1452.53L1425.95 299.051H1354.75L1487.66 0L1556.01 0L1689.87 299.051H1617.72L1591.14 234.494ZM1569.3 182.278L1521.84 67.4051L1474.37 182.278H1569.3ZM1768.67 56.0126H1672.78V0L1933.86 0V56.0126H1837.97V299.051H1768.67V56.0126Z" fill="url(#paint0_linear_689_954)"></path> <defs> <linearGradient id="paint0_linear_689_954" x1="230.5" y1="40.5" x2="683.444" y2="949.878" gradientUnits="userSpaceOnUse"> <stop stop-color="#2FCA96"></stop> <stop offset="1" stop-color="#0FAEAE"></stop> </linearGradient> </defs> </svg> 